<svg width="32" height="32" viewBox="0 0 32 32" fill="none" xmlns="http://www.w3.org/2000/svg">
<g clip-path="url(#clip0_23_12)">
<g clip-path="url(#clip1_23_12)">
<mask id="path-1-outside-1_23_12" maskUnits="userSpaceOnUse" x="-1" y="-1" width="34" height="34" fill="black">
<rect fill="white" x="-1" y="-1" width="34" height="34"/>
<path d="M14.1345 0.102731C10.4975 0.580329 7.33498 2.09272 4.80492 4.57256C2.62153 6.7095 1.1558 9.2873 0.419888 12.2876C0.10363 13.5796 -0.00584344 14.5715 0.000238438 16.0227C0.00632032 18.6556 0.52328 20.8232 1.70925 23.2111C2.89521 25.5869 4.76843 27.7116 7.05523 29.2546C10.1084 31.3119 13.9825 32.3039 17.4795 31.9181C21.4936 31.4711 24.6987 29.9587 27.3991 27.2218C31.0483 23.5173 32.5809 18.7291 31.8024 13.3898C31.3523 10.2548 29.5581 6.80134 27.2288 4.56644C25.0272 2.46011 22.3816 1.02731 19.4866 0.378268C17.8262 0.0108855 15.6915 -0.105453 14.1345 0.102731ZM17.9722 2.12334C22.3572 2.76626 26.2314 5.60123 28.2384 9.63635C28.8466 10.8609 29.2845 12.2447 29.5034 13.604C29.6555 14.547 29.6555 17.0758 29.5034 17.9514C29.0959 20.2659 28.2688 22.2253 26.8822 24.1051C26.651 24.4235 26.049 25.097 25.5502 25.5991L24.644 26.5053L24.6805 26.9768L24.717 27.4422L24.5406 26.7686C24.3338 25.9665 24.1514 25.5196 23.8838 25.1644C23.7743 25.0174 23.6831 24.8644 23.6831 24.8215C23.6891 24.7848 23.8412 24.6378 24.0298 24.5031C24.3703 24.2582 24.8387 23.7622 25.0941 23.3703C25.1853 23.2417 25.313 23.1377 25.4408 23.1009C25.7448 23.0152 26.0915 22.654 26.1706 22.3416C26.2557 22.0416 26.2253 21.9008 26.0185 21.5885L25.8665 21.3681L26.0003 20.7619C26.1341 20.1619 26.1341 20.1496 26.0307 19.2067C25.9759 18.6862 25.9334 18.1841 25.9334 18.0984C25.9334 17.8841 25.4651 16.9411 25.0941 16.4207C24.4737 15.5389 24.2426 15.3308 23.3425 14.8899C22.2964 14.3695 21.9133 14.2837 20.855 14.3266C19.9306 14.3633 19.1521 14.5409 18.4405 14.8838C17.7228 15.2267 16.9078 16.041 16.1233 17.2106C15.8557 17.6024 15.8374 17.6514 15.8374 18.031C15.8374 18.3249 15.7766 18.6127 15.6185 19.1087C15.3509 19.9475 15.3631 20.1435 15.7462 20.7987C15.8983 21.0558 16.0199 21.3007 16.0199 21.3313C16.0199 21.3681 15.9409 21.4844 15.8374 21.5946C15.5151 21.9437 15.5212 22.4825 15.8557 22.8438C16.0442 23.0458 16.5064 23.2357 16.622 23.156C16.6524 23.1377 16.6281 22.9846 16.5612 22.8193C16.3787 22.3356 16.4274 22.3172 16.6524 22.7887C17.0964 23.7316 17.6985 24.3378 18.6655 24.8154C19.3953 25.1705 20.0218 25.3297 20.9158 25.3725C21.3172 25.3909 21.5909 25.4277 21.524 25.4522C21.1591 25.5807 19.4805 25.342 18.7081 25.0481L18.3067 24.895L18.2033 25.0358C17.9783 25.3297 17.5343 26.3033 17.4248 26.738C17.364 26.9891 17.2788 27.4973 17.2363 27.8646C17.1146 29.0097 17.066 29.1137 16.9383 28.4402C16.7254 27.3258 15.2962 22.0477 15.1198 21.7293C15.0955 21.6804 14.7123 21.5518 14.2684 21.4416C13.8244 21.3252 13.3378 21.1905 13.1857 21.1293C13.0398 21.0742 12.8999 21.0436 12.8817 21.062C12.8634 21.0803 12.9668 21.2579 13.1128 21.4538C13.2588 21.6497 13.4655 21.9498 13.575 22.1151C13.8609 22.5743 14.5238 24.0071 14.7184 24.5766C14.9313 25.1828 14.913 25.2256 14.2744 25.7706C14.0312 25.9788 13.8305 26.1931 13.8305 26.2482C13.8305 26.2972 14.1102 26.6033 14.4508 26.9217C15.0407 27.4789 15.0651 27.5157 15.0164 27.6871L14.9617 27.8708L14.9373 27.681C14.9252 27.534 14.7792 27.3687 14.2866 26.8972C13.9338 26.5727 13.648 26.2666 13.648 26.2175C13.648 26.1747 13.8669 25.9482 14.1284 25.7155C14.7974 25.1399 14.8035 25.1032 14.5299 24.399C14.0676 23.2173 13.0763 21.3926 12.7114 21.0497C12.5958 20.9395 12.5532 20.8354 12.5532 20.6701C12.5532 20.419 12.608 20.3578 12.9181 20.2537C13.2344 20.1496 13.5446 19.9108 13.7574 19.6108C13.9277 19.372 14.0007 19.3291 14.4691 19.1821C14.7549 19.0903 14.986 18.9923 14.986 18.9679C14.986 18.9372 14.8765 18.778 14.7427 18.6188C14.4812 18.3004 14.4325 18.0739 14.6089 18.0188C14.6637 18.0004 14.8765 17.9698 15.0772 17.9453C15.278 17.9269 15.4604 17.8963 15.4847 17.878C15.5091 17.8657 15.4482 17.633 15.3509 17.3636C15.2475 17.0942 15.1684 16.8371 15.1684 16.8003C15.1684 16.7574 15.3266 16.6778 15.5212 16.6105C15.953 16.4696 16.6889 16.1023 16.6889 16.0288C16.6889 15.9982 16.4639 15.8512 16.1963 15.7043C15.6671 15.4226 15.132 14.994 15.211 14.9205C15.2353 14.896 15.4543 14.8103 15.6854 14.7368C16.2692 14.5409 16.8896 14.2531 17.3762 13.9408C17.6012 13.8 17.7837 13.6714 17.7715 13.6653C17.7471 13.6469 16.099 12.9366 15.9409 12.8815C15.8678 12.8509 15.8496 12.8142 15.88 12.7591C15.9044 12.7101 16.3058 12.3182 16.768 11.8896C17.2241 11.4548 17.6012 11.0813 17.6012 11.0569C17.6012 11.0079 17.2241 10.9405 16.1112 10.7813C15.7098 10.7201 15.357 10.6589 15.3327 10.6344C15.3023 10.6099 15.582 10.071 15.953 9.44038C16.5551 8.40557 16.6707 8.18515 16.6099 8.18515C16.5977 8.18515 16.0989 8.36275 15.503 8.58317C14.6332 8.90157 14.396 8.96282 14.3352 8.90157C14.2014 8.76685 14.0737 7.75654 14.0737 6.8503V5.97474L13.5811 6.23803C13.0033 6.55034 12.2309 7.15648 11.8721 7.57901C11.7382 7.74432 11.5984 7.87904 11.5741 7.87904C11.5436 7.87904 11.3125 7.59738 11.051 7.24832C10.601 6.64826 9.8407 5.79717 9.75558 5.79717C9.73126 5.79717 9.68256 6.06659 9.64608 6.3911C9.53664 7.30957 9.21427 8.43008 9.05613 8.43008C9.01357 8.43008 8.72166 8.30765 8.41146 8.16064C7.91277 7.928 7.15251 7.6953 6.87277 7.6953C6.79981 7.6953 6.83629 7.8055 7.01267 8.16678C7.28026 8.71174 7.52352 9.56288 7.49312 9.85677L7.47488 10.0527L6.92749 10.0956C5.33405 10.218 4.58598 10.2915 4.58598 10.3221C4.58598 10.3466 4.85358 10.6344 5.182 10.9711C5.79627 11.5957 6.24633 12.2631 6.21592 12.4958C6.20376 12.5815 5.89358 12.8387 5.25498 13.2857C4.73802 13.6469 4.30621 13.9715 4.29405 14.002C4.28188 14.0327 4.34878 14.0755 4.44609 14.1C5.09685 14.2408 5.37662 14.3327 5.60773 14.4674C5.92399 14.6572 6.25241 14.9389 6.41664 15.1716L6.53824 15.343L5.85709 16.0227C5.28539 16.5982 5.18808 16.7146 5.26106 16.782C5.30972 16.8248 5.67463 16.9656 6.07604 17.0881C6.47744 17.2106 6.83021 17.3391 6.86061 17.3697C6.89101 17.4004 6.84237 17.7126 6.72678 18.1412C6.62342 18.5393 6.55648 18.8883 6.57472 18.9188C6.60518 18.974 7.60864 18.925 7.77286 18.8637C7.92493 18.8086 7.98573 18.9556 8.02835 19.4394C8.05267 19.721 8.08915 19.9598 8.11347 19.972C8.16211 20.0026 8.84326 19.7087 8.84326 19.6598C8.84326 19.6414 8.76422 19.5128 8.66694 19.372C8.25946 18.7719 7.97965 18.0188 7.7607 16.9105C7.61478 16.2063 7.54784 15.5328 7.62086 15.5328C7.64518 15.5328 7.68774 15.7288 7.71206 15.9676C7.83373 17.333 8.46016 19.0659 9.03181 19.6414C9.17779 19.7884 9.49408 19.9965 9.79814 20.1373L10.3091 20.3761L10.2908 20.6027L10.2725 20.8292L8.92237 21.2824L7.57216 21.7355L7.45056 22.109C7.38362 22.3172 7.10387 23.2662 6.83629 24.2276C6.33755 25.9726 6.18551 26.4135 6.2585 25.8931C6.2889 25.6358 6.27674 25.6114 5.96656 25.2685C4.02644 23.1622 2.82831 20.6945 2.36001 17.829C2.18363 16.782 2.20188 14.5409 2.39042 13.5122C2.91954 10.6221 4.08726 8.26477 5.99697 6.25028C9.11091 2.97444 13.4716 1.46817 17.9722 2.12334ZM9.74342 21.913C9.30554 22.8254 8.52704 25.0113 8.59392 25.1277C8.62432 25.1828 8.88589 25.4338 9.17779 25.6909C9.47577 25.9482 9.72518 26.1869 9.73734 26.2298C9.75558 26.2726 9.66432 26.4074 9.53664 26.5359C9.40281 26.6768 9.35418 26.7074 9.41498 26.6156C9.65216 26.242 9.6704 26.291 9.05613 25.7216C8.64256 25.3358 8.4784 25.146 8.4784 25.0419C8.4784 24.7235 9.68256 21.6559 9.8103 21.6559C9.8407 21.6559 9.8103 21.7722 9.74342 21.913Z"/>
</mask>
<path d="M14.1345 0.102731C10.4975 0.580329 7.33498 2.09272 4.80492 4.57256C2.62153 6.7095 1.1558 9.2873 0.419888 12.2876C0.10363 13.5796 -0.00584344 14.5715 0.000238438 16.0227C0.00632032 18.6556 0.52328 20.8232 1.70925 23.2111C2.89521 25.5869 4.76843 27.7116 7.05523 29.2546C10.1084 31.3119 13.9825 32.3039 17.4795 31.9181C21.4936 31.4711 24.6987 29.9587 27.3991 27.2218C31.0483 23.5173 32.5809 18.7291 31.8024 13.3898C31.3523 10.2548 29.5581 6.80134 27.2288 4.56644C25.0272 2.46011 22.3816 1.02731 19.4866 0.378268C17.8262 0.0108855 15.6915 -0.105453 14.1345 0.102731ZM17.9722 2.12334C22.3572 2.76626 26.2314 5.60123 28.2384 9.63635C28.8466 10.8609 29.2845 12.2447 29.5034 13.604C29.6555 14.547 29.6555 17.0758 29.5034 17.9514C29.0959 20.2659 28.2688 22.2253 26.8822 24.1051C26.651 24.4235 26.049 25.097 25.5502 25.5991L24.644 26.5053L24.6805 26.9768L24.717 27.4422L24.5406 26.7686C24.3338 25.9665 24.1514 25.5196 23.8838 25.1644C23.7743 25.0174 23.6831 24.8644 23.6831 24.8215C23.6891 24.7848 23.8412 24.6378 24.0298 24.5031C24.3703 24.2582 24.8387 23.7622 25.0941 23.3703C25.1853 23.2417 25.313 23.1377 25.4408 23.1009C25.7448 23.0152 26.0915 22.654 26.1706 22.3416C26.2557 22.0416 26.2253 21.9008 26.0185 21.5885L25.8665 21.3681L26.0003 20.7619C26.1341 20.1619 26.1341 20.1496 26.0307 19.2067C25.9759 18.6862 25.9334 18.1841 25.9334 18.0984C25.9334 17.8841 25.4651 16.9411 25.0941 16.4207C24.4737 15.5389 24.2426 15.3308 23.3425 14.8899C22.2964 14.3695 21.9133 14.2837 20.855 14.3266C19.9306 14.3633 19.1521 14.5409 18.4405 14.8838C17.7228 15.2267 16.9078 16.041 16.1233 17.2106C15.8557 17.6024 15.8374 17.6514 15.8374 18.031C15.8374 18.3249 15.7766 18.6127 15.6185 19.1087C15.3509 19.9475 15.3631 20.1435 15.7462 20.7987C15.8983 21.0558 16.0199 21.3007 16.0199 21.3313C16.0199 21.3681 15.9409 21.4844 15.8374 21.5946C15.5151 21.9437 15.5212 22.4825 15.8557 22.8438C16.0442 23.0458 16.5064 23.2357 16.622 23.156C16.6524 23.1377 16.6281 22.9846 16.5612 22.8193C16.3787 22.3356 16.4274 22.3172 16.6524 22.7887C17.0964 23.7316 17.6985 24.3378 18.6655 24.8154C19.3953 25.1705 20.0218 25.3297 20.9158 25.3725C21.3172 25.3909 21.5909 25.4277 21.524 25.4522C21.1591 25.5807 19.4805 25.342 18.7081 25.0481L18.3067 24.895L18.2033 25.0358C17.9783 25.3297 17.5343 26.3033 17.4248 26.738C17.364 26.9891 17.2788 27.4973 17.2363 27.8646C17.1146 29.0097 17.066 29.1137 16.9383 28.4402C16.7254 27.3258 15.2962 22.0477 15.1198 21.7293C15.0955 21.6804 14.7123 21.5518 14.2684 21.4416C13.8244 21.3252 13.3378 21.1905 13.1857 21.1293C13.0398 21.0742 12.8999 21.0436 12.8817 21.062C12.8634 21.0803 12.9668 21.2579 13.1128 21.4538C13.2588 21.6497 13.4655 21.9498 13.575 22.1151C13.8609 22.5743 14.5238 24.0071 14.7184 24.5766C14.9313 25.1828 14.913 25.2256 14.2744 25.7706C14.0312 25.9788 13.8305 26.1931 13.8305 26.2482C13.8305 26.2972 14.1102 26.6033 14.4508 26.9217C15.0407 27.4789 15.0651 27.5157 15.0164 27.6871L14.9617 27.8708L14.9373 27.681C14.9252 27.534 14.7792 27.3687 14.2866 26.8972C13.9338 26.5727 13.648 26.2666 13.648 26.2175C13.648 26.1747 13.8669 25.9482 14.1284 25.7155C14.7974 25.1399 14.8035 25.1032 14.5299 24.399C14.0676 23.2173 13.0763 21.3926 12.7114 21.0497C12.5958 20.9395 12.5532 20.8354 12.5532 20.6701C12.5532 20.419 12.608 20.3578 12.9181 20.2537C13.2344 20.1496 13.5446 19.9108 13.7574 19.6108C13.9277 19.372 14.0007 19.3291 14.4691 19.1821C14.7549 19.0903 14.986 18.9923 14.986 18.9679C14.986 18.9372 14.8765 18.778 14.7427 18.6188C14.4812 18.3004 14.4325 18.0739 14.6089 18.0188C14.6637 18.0004 14.8765 17.9698 15.0772 17.9453C15.278 17.9269 15.4604 17.8963 15.4847 17.878C15.5091 17.8657 15.4482 17.633 15.3509 17.3636C15.2475 17.0942 15.1684 16.8371 15.1684 16.8003C15.1684 16.7574 15.3266 16.6778 15.5212 16.6105C15.953 16.4696 16.6889 16.1023 16.6889 16.0288C16.6889 15.9982 16.4639 15.8512 16.1963 15.7043C15.6671 15.4226 15.132 14.994 15.211 14.9205C15.2353 14.896 15.4543 14.8103 15.6854 14.7368C16.2692 14.5409 16.8896 14.2531 17.3762 13.9408C17.6012 13.8 17.7837 13.6714 17.7715 13.6653C17.7471 13.6469 16.099 12.9366 15.9409 12.8815C15.8678 12.8509 15.8496 12.8142 15.88 12.7591C15.9044 12.7101 16.3058 12.3182 16.768 11.8896C17.2241 11.4548 17.6012 11.0813 17.6012 11.0569C17.6012 11.0079 17.2241 10.9405 16.1112 10.7813C15.7098 10.7201 15.357 10.6589 15.3327 10.6344C15.3023 10.6099 15.582 10.071 15.953 9.44038C16.5551 8.40557 16.6707 8.18515 16.6099 8.18515C16.5977 8.18515 16.0989 8.36275 15.503 8.58317C14.6332 8.90157 14.396 8.96282 14.3352 8.90157C14.2014 8.76685 14.0737 7.75654 14.0737 6.8503V5.97474L13.5811 6.23803C13.0033 6.55034 12.2309 7.15648 11.8721 7.57901C11.7382 7.74432 11.5984 7.87904 11.5741 7.87904C11.5436 7.87904 11.3125 7.59738 11.051 7.24832C10.601 6.64826 9.8407 5.79717 9.75558 5.79717C9.73126 5.79717 9.68256 6.06659 9.64608 6.3911C9.53664 7.30957 9.21427 8.43008 9.05613 8.43008C9.01357 8.43008 8.72166 8.30765 8.41146 8.16064C7.91277 7.928 7.15251 7.6953 6.87277 7.6953C6.79981 7.6953 6.83629 7.8055 7.01267 8.16678C7.28026 8.71174 7.52352 9.56288 7.49312 9.85677L7.47488 10.0527L6.92749 10.0956C5.33405 10.218 4.58598 10.2915 4.58598 10.3221C4.58598 10.3466 4.85358 10.6344 5.182 10.9711C5.79627 11.5957 6.24633 12.2631 6.21592 12.4958C6.20376 12.5815 5.89358 12.8387 5.25498 13.2857C4.73802 13.6469 4.30621 13.9715 4.29405 14.002C4.28188 14.0327 4.34878 14.0755 4.44609 14.1C5.09685 14.2408 5.37662 14.3327 5.60773 14.4674C5.92399 14.6572 6.25241 14.9389 6.41664 15.1716L6.53824 15.343L5.85709 16.0227C5.28539 16.5982 5.18808 16.7146 5.26106 16.782C5.30972 16.8248 5.67463 16.9656 6.07604 17.0881C6.47744 17.2106 6.83021 17.3391 6.86061 17.3697C6.89101 17.4004 6.84237 17.7126 6.72678 18.1412C6.62342 18.5393 6.55648 18.8883 6.57472 18.9188C6.60518 18.974 7.60864 18.925 7.77286 18.8637C7.92493 18.8086 7.98573 18.9556 8.02835 19.4394C8.05267 19.721 8.08915 19.9598 8.11347 19.972C8.16211 20.0026 8.84326 19.7087 8.84326 19.6598C8.84326 19.6414 8.76422 19.5128 8.66694 19.372C8.25946 18.7719 7.97965 18.0188 7.7607 16.9105C7.61478 16.2063 7.54784 15.5328 7.62086 15.5328C7.64518 15.5328 7.68774 15.7288 7.71206 15.9676C7.83373 17.333 8.46016 19.0659 9.03181 19.6414C9.17779 19.7884 9.49408 19.9965 9.79814 20.1373L10.3091 20.3761L10.2908 20.6027L10.2725 20.8292L8.92237 21.2824L7.57216 21.7355L7.45056 22.109C7.38362 22.3172 7.10387 23.2662 6.83629 24.2276C6.33755 25.9726 6.18551 26.4135 6.2585 25.8931C6.2889 25.6358 6.27674 25.6114 5.96656 25.2685C4.02644 23.1622 2.82831 20.6945 2.36001 17.829C2.18363 16.782 2.20188 14.5409 2.39042 13.5122C2.91954 10.6221 4.08726 8.26477 5.99697 6.25028C9.11091 2.97444 13.4716 1.46817 17.9722 2.12334ZM9.74342 21.913C9.30554 22.8254 8.52704 25.0113 8.59392 25.1277C8.62432 25.1828 8.88589 25.4338 9.17779 25.6909C9.47577 25.9482 9.72518 26.1869 9.73734 26.2298C9.75558 26.2726 9.66432 26.4074 9.53664 26.5359C9.40281 26.6768 9.35418 26.7074 9.41498 26.6156C9.65216 26.242 9.6704 26.291 9.05613 25.7216C8.64256 25.3358 8.4784 25.146 8.4784 25.0419C8.4784 24.7235 9.68256 21.6559 9.8103 21.6559C9.8407 21.6559 9.8103 21.7722 9.74342 21.913Z" fill="#F9FAFB"/>
<path d="M14.1345 0.102731C10.4975 0.580329 7.33498 2.09272 4.80492 4.57256C2.62153 6.7095 1.1558 9.2873 0.419888 12.2876C0.10363 13.5796 -0.00584344 14.5715 0.000238438 16.0227C0.00632032 18.6556 0.52328 20.8232 1.70925 23.2111C2.89521 25.5869 4.76843 27.7116 7.05523 29.2546C10.1084 31.3119 13.9825 32.3039 17.4795 31.9181C21.4936 31.4711 24.6987 29.9587 27.3991 27.2218C31.0483 23.5173 32.5809 18.7291 31.8024 13.3898C31.3523 10.2548 29.5581 6.80134 27.2288 4.56644C25.0272 2.46011 22.3816 1.02731 19.4866 0.378268C17.8262 0.0108855 15.6915 -0.105453 14.1345 0.102731ZM17.9722 2.12334C22.3572 2.76626 26.2314 5.60123 28.2384 9.63635C28.8466 10.8609 29.2845 12.2447 29.5034 13.604C29.6555 14.547 29.6555 17.0758 29.5034 17.9514C29.0959 20.2659 28.2688 22.2253 26.8822 24.1051C26.651 24.4235 26.049 25.097 25.5502 25.5991L24.644 26.5053L24.6805 26.9768L24.717 27.4422L24.5406 26.7686C24.3338 25.9665 24.1514 25.5196 23.8838 25.1644C23.7743 25.0174 23.6831 24.8644 23.6831 24.8215C23.6891 24.7848 23.8412 24.6378 24.0298 24.5031C24.3703 24.2582 24.8387 23.7622 25.0941 23.3703C25.1853 23.2417 25.313 23.1377 25.4408 23.1009C25.7448 23.0152 26.0915 22.654 26.1706 22.3416C26.2557 22.0416 26.2253 21.9008 26.0185 21.5885L25.8665 21.3681L26.0003 20.7619C26.1341 20.1619 26.1341 20.1496 26.0307 19.2067C25.9759 18.6862 25.9334 18.1841 25.9334 18.0984C25.9334 17.8841 25.4651 16.9411 25.0941 16.4207C24.4737 15.5389 24.2426 15.3308 23.3425 14.8899C22.2964 14.3695 21.9133 14.2837 20.855 14.3266C19.9306 14.3633 19.1521 14.5409 18.4405 14.8838C17.7228 15.2267 16.9078 16.041 16.1233 17.2106C15.8557 17.6024 15.8374 17.6514 15.8374 18.031C15.8374 18.3249 15.7766 18.6127 15.6185 19.1087C15.3509 19.9475 15.3631 20.1435 15.7462 20.7987C15.8983 21.0558 16.0199 21.3007 16.0199 21.3313C16.0199 21.3681 15.9409 21.4844 15.8374 21.5946C15.5151 21.9437 15.5212 22.4825 15.8557 22.8438C16.0442 23.0458 16.5064 23.2357 16.622 23.156C16.6524 23.1377 16.6281 22.9846 16.5612 22.8193C16.3787 22.3356 16.4274 22.3172 16.6524 22.7887C17.0964 23.7316 17.6985 24.3378 18.6655 24.8154C19.3953 25.1705 20.0218 25.3297 20.9158 25.3725C21.3172 25.3909 21.5909 25.4277 21.524 25.4522C21.1591 25.5807 19.4805 25.342 18.7081 25.0481L18.3067 24.895L18.2033 25.0358C17.9783 25.3297 17.5343 26.3033 17.4248 26.738C17.364 26.9891 17.2788 27.4973 17.2363 27.8646C17.1146 29.0097 17.066 29.1137 16.9383 28.4402C16.7254 27.3258 15.2962 22.0477 15.1198 21.7293C15.0955 21.6804 14.7123 21.5518 14.2684 21.4416C13.8244 21.3252 13.3378 21.1905 13.1857 21.1293C13.0398 21.0742 12.8999 21.0436 12.8817 21.062C12.8634 21.0803 12.9668 21.2579 13.1128 21.4538C13.2588 21.6497 13.4655 21.9498 13.575 22.1151C13.8609 22.5743 14.5238 24.0071 14.7184 24.5766C14.9313 25.1828 14.913 25.2256 14.2744 25.7706C14.0312 25.9788 13.8305 26.1931 13.8305 26.2482C13.8305 26.2972 14.1102 26.6033 14.4508 26.9217C15.0407 27.4789 15.0651 27.5157 15.0164 27.6871L14.9617 27.8708L14.9373 27.681C14.9252 27.534 14.7792 27.3687 14.2866 26.8972C13.9338 26.5727 13.648 26.2666 13.648 26.2175C13.648 26.1747 13.8669 25.9482 14.1284 25.7155C14.7974 25.1399 14.8035 25.1032 14.5299 24.399C14.0676 23.2173 13.0763 21.3926 12.7114 21.0497C12.5958 20.9395 12.5532 20.8354 12.5532 20.6701C12.5532 20.419 12.608 20.3578 12.9181 20.2537C13.2344 20.1496 13.5446 19.9108 13.7574 19.6108C13.9277 19.372 14.0007 19.3291 14.4691 19.1821C14.7549 19.0903 14.986 18.9923 14.986 18.9679C14.986 18.9372 14.8765 18.778 14.7427 18.6188C14.4812 18.3004 14.4325 18.0739 14.6089 18.0188C14.6637 18.0004 14.8765 17.9698 15.0772 17.9453C15.278 17.9269 15.4604 17.8963 15.4847 17.878C15.5091 17.8657 15.4482 17.633 15.3509 17.3636C15.2475 17.0942 15.1684 16.8371 15.1684 16.8003C15.1684 16.7574 15.3266 16.6778 15.5212 16.6105C15.953 16.4696 16.6889 16.1023 16.6889 16.0288C16.6889 15.9982 16.4639 15.8512 16.1963 15.7043C15.6671 15.4226 15.132 14.994 15.211 14.9205C15.2353 14.896 15.4543 14.8103 15.6854 14.7368C16.2692 14.5409 16.8896 14.2531 17.3762 13.9408C17.6012 13.8 17.7837 13.6714 17.7715 13.6653C17.7471 13.6469 16.099 12.9366 15.9409 12.8815C15.8678 12.8509 15.8496 12.8142 15.88 12.7591C15.9044 12.7101 16.3058 12.3182 16.768 11.8896C17.2241 11.4548 17.6012 11.0813 17.6012 11.0569C17.6012 11.0079 17.2241 10.9405 16.1112 10.7813C15.7098 10.7201 15.357 10.6589 15.3327 10.6344C15.3023 10.6099 15.582 10.071 15.953 9.44038C16.5551 8.40557 16.6707 8.18515 16.6099 8.18515C16.5977 8.18515 16.0989 8.36275 15.503 8.58317C14.6332 8.90157 14.396 8.96282 14.3352 8.90157C14.2014 8.76685 14.0737 7.75654 14.0737 6.8503V5.97474L13.5811 6.23803C13.0033 6.55034 12.2309 7.15648 11.8721 7.57901C11.7382 7.74432 11.5984 7.87904 11.5741 7.87904C11.5436 7.87904 11.3125 7.59738 11.051 7.24832C10.601 6.64826 9.8407 5.79717 9.75558 5.79717C9.73126 5.79717 9.68256 6.06659 9.64608 6.3911C9.53664 7.30957 9.21427 8.43008 9.05613 8.43008C9.01357 8.43008 8.72166 8.30765 8.41146 8.16064C7.91277 7.928 7.15251 7.6953 6.87277 7.6953C6.79981 7.6953 6.83629 7.8055 7.01267 8.16678C7.28026 8.71174 7.52352 9.56288 7.49312 9.85677L7.47488 10.0527L6.92749 10.0956C5.33405 10.218 4.58598 10.2915 4.58598 10.3221C4.58598 10.3466 4.85358 10.6344 5.182 10.9711C5.79627 11.5957 6.24633 12.2631 6.21592 12.4958C6.20376 12.5815 5.89358 12.8387 5.25498 13.2857C4.73802 13.6469 4.30621 13.9715 4.29405 14.002C4.28188 14.0327 4.34878 14.0755 4.44609 14.1C5.09685 14.2408 5.37662 14.3327 5.60773 14.4674C5.92399 14.6572 6.25241 14.9389 6.41664 15.1716L6.53824 15.343L5.85709 16.0227C5.28539 16.5982 5.18808 16.7146 5.26106 16.782C5.30972 16.8248 5.67463 16.9656 6.07604 17.0881C6.47744 17.2106 6.83021 17.3391 6.86061 17.3697C6.89101 17.4004 6.84237 17.7126 6.72678 18.1412C6.62342 18.5393 6.55648 18.8883 6.57472 18.9188C6.60518 18.974 7.60864 18.925 7.77286 18.8637C7.92493 18.8086 7.98573 18.9556 8.02835 19.4394C8.05267 19.721 8.08915 19.9598 8.11347 19.972C8.16211 20.0026 8.84326 19.7087 8.84326 19.6598C8.84326 19.6414 8.76422 19.5128 8.66694 19.372C8.25946 18.7719 7.97965 18.0188 7.7607 16.9105C7.61478 16.2063 7.54784 15.5328 7.62086 15.5328C7.64518 15.5328 7.68774 15.7288 7.71206 15.9676C7.83373 17.333 8.46016 19.0659 9.03181 19.6414C9.17779 19.7884 9.49408 19.9965 9.79814 20.1373L10.3091 20.3761L10.2908 20.6027L10.2725 20.8292L8.92237 21.2824L7.57216 21.7355L7.45056 22.109C7.38362 22.3172 7.10387 23.2662 6.83629 24.2276C6.33755 25.9726 6.18551 26.4135 6.2585 25.8931C6.2889 25.6358 6.27674 25.6114 5.96656 25.2685C4.02644 23.1622 2.82831 20.6945 2.36001 17.829C2.18363 16.782 2.20188 14.5409 2.39042 13.5122C2.91954 10.6221 4.08726 8.26477 5.99697 6.25028C9.11091 2.97444 13.4716 1.46817 17.9722 2.12334ZM9.74342 21.913C9.30554 22.8254 8.52704 25.0113 8.59392 25.1277C8.62432 25.1828 8.88589 25.4338 9.17779 25.6909C9.47577 25.9482 9.72518 26.1869 9.73734 26.2298C9.75558 26.2726 9.66432 26.4074 9.53664 26.5359C9.40281 26.6768 9.35418 26.7074 9.41498 26.6156C9.65216 26.242 9.6704 26.291 9.05613 25.7216C8.64256 25.3358 8.4784 25.146 8.4784 25.0419C8.4784 24.7235 9.68256 21.6559 9.8103 21.6559C9.8407 21.6559 9.8103 21.7722 9.74342 21.913Z" stroke="#111827" stroke-width="2" mask="url(#path-1-outside-1_23_12)"/>
</g>
</g>
<defs>
<clipPath id="clip0_23_12">
<rect width="32" height="32" fill="white"/>
</clipPath>
<clipPath id="clip1_23_12">
<rect width="32" height="32" fill="white"/>
</clipPath>
</defs>
</svg>
