<svg width="52" height="52" viewBox="0 0 52 52" fill="none" xmlns="http://www.w3.org/2000/svg">
<g clip-path="url(#clip0_6_32)">
<path d="M22.9686 0.166938C17.0585 0.943035 11.9193 3.40067 7.808 7.43041C4.25999 10.9029 1.87817 15.0919 0.682318 19.9674C0.168399 22.0668 -0.00949559 23.6787 0.000387461 26.0368C0.0102705 30.3153 0.85033 33.8376 2.77753 37.7181C4.70472 41.5787 7.74871 45.0313 11.4648 47.5387C16.4261 50.8819 22.7215 52.4938 28.4043 51.867C34.9272 51.1405 40.1355 48.6829 44.5235 44.2354C50.4534 38.2156 52.9439 30.4348 51.6788 21.7584C50.9475 16.664 48.032 11.0522 44.2468 7.42046C40.6692 3.99768 36.37 1.66939 31.6657 0.614686C28.9676 0.0176889 25.4987 -0.17136 22.9686 0.166938ZM29.2049 3.45043C36.3305 4.49517 42.626 9.10201 45.8874 15.6591C46.8757 17.649 47.5873 19.8977 47.9431 22.1066C48.1902 23.6389 48.1902 27.7482 47.9431 29.1711C47.2809 32.9321 45.9368 36.1162 43.6835 39.1708C43.3079 39.6882 42.3296 40.7827 41.5191 41.5985L40.0466 43.0712L40.1058 43.8373L40.1651 44.5935L39.8785 43.499C39.5425 42.1956 39.246 41.4693 38.8111 40.8922C38.6333 40.6533 38.485 40.4046 38.485 40.3349C38.4949 40.2752 38.742 40.0365 39.0484 39.8175C39.6017 39.4195 40.3628 38.6135 40.7779 37.9767C40.9261 37.7678 41.1337 37.5987 41.3412 37.539C41.8354 37.3996 42.3987 36.8127 42.5272 36.3051C42.6656 35.8176 42.6161 35.5888 42.2801 35.0814L42.0331 34.7231L42.2504 33.7381C42.4679 32.763 42.4679 32.7432 42.2998 31.2108C42.2109 30.3651 42.1417 29.5492 42.1417 29.4098C42.1417 29.0617 41.3808 27.5293 40.7779 26.6836C39.7698 25.2508 39.3943 24.9125 37.9315 24.1961C36.2316 23.3504 35.6091 23.211 33.8893 23.2807C32.3872 23.3404 31.1221 23.6289 29.9658 24.1861C28.7996 24.7434 27.4752 26.0667 26.2004 27.9672C25.7655 28.604 25.7358 28.6835 25.7358 29.3004C25.7358 29.778 25.637 30.2457 25.3801 31.0516C24.9452 32.4147 24.965 32.7332 25.5876 33.7978C25.8347 34.2157 26.0323 34.6137 26.0323 34.6634C26.0323 34.7231 25.9039 34.9122 25.7358 35.0913C25.2121 35.6585 25.222 36.5341 25.7655 37.1211C26.0719 37.4495 26.823 37.7579 27.0108 37.6286C27.0602 37.5987 27.0207 37.3499 26.912 37.0813C26.6155 36.2953 26.6945 36.2654 27.0602 37.0316C27.7816 38.5638 28.7601 39.5489 30.3315 40.325C31.5174 40.9021 32.5354 41.1608 33.9882 41.2304C34.6405 41.2602 35.0852 41.3199 34.9766 41.3598C34.3835 41.5687 31.6558 41.1807 30.4007 40.7031L29.7484 40.4543L29.5804 40.6831C29.2147 41.1608 28.4932 42.7429 28.3153 43.4492C28.2166 43.8572 28.0781 44.6831 28.009 45.28C27.8113 47.1407 27.7322 47.3098 27.5247 46.2153C27.1788 44.4045 24.8563 35.8276 24.5697 35.3102C24.5302 35.2306 23.9075 35.0217 23.1861 34.8426C22.4646 34.6535 21.6739 34.4346 21.4268 34.3351C21.1897 34.2455 20.9623 34.1958 20.9327 34.2257C20.9031 34.2555 21.071 34.544 21.3082 34.8625C21.5455 35.1808 21.8815 35.6684 22.0593 35.9371C22.5239 36.6833 23.6011 39.0115 23.9174 39.9369C24.2633 40.922 24.2337 40.9916 23.196 41.8772C22.8006 42.2155 22.4745 42.5638 22.4745 42.6533C22.4745 42.7329 22.9291 43.2304 23.4826 43.7478C24.4411 44.6532 24.4808 44.7129 24.4016 44.9915L24.3127 45.29L24.2732 44.9816C24.2534 44.7428 24.0162 44.4741 23.2157 43.708C22.6425 43.1806 22.178 42.6832 22.178 42.6035C22.178 42.5339 22.5338 42.1658 22.9587 41.7876C24.0458 40.8523 24.0557 40.7926 23.611 39.6483C22.8599 37.7281 21.249 34.7629 20.656 34.2057C20.4682 34.0266 20.399 33.8575 20.399 33.5889C20.399 33.1809 20.488 33.0814 20.992 32.9123C21.506 32.7432 22.0099 32.355 22.3558 31.8675C22.6326 31.4794 22.7511 31.4098 23.5122 31.171C23.9767 31.0217 24.3522 30.8625 24.3522 30.8228C24.3522 30.773 24.1744 30.5143 23.9569 30.2556C23.532 29.7382 23.4528 29.3701 23.7395 29.2806C23.8285 29.2507 24.1744 29.2009 24.5005 29.1611C24.8267 29.1312 25.1231 29.0815 25.1627 29.0517C25.2022 29.0318 25.1033 28.6537 24.9452 28.2159C24.7772 27.7781 24.6487 27.3602 24.6487 27.3005C24.6487 27.2308 24.9057 27.1015 25.222 26.9921C25.9237 26.7632 27.1195 26.1662 27.1195 26.0468C27.1195 25.9971 26.7538 25.7582 26.319 25.5194C25.4591 25.0617 24.5894 24.3652 24.7179 24.2458C24.7574 24.206 25.1132 24.0667 25.4887 23.9474C26.4375 23.6289 27.4456 23.1613 28.2363 22.6538C28.602 22.425 28.8985 22.2161 28.8787 22.2061C28.8391 22.1762 26.1609 21.022 25.9039 20.9325C25.7852 20.8828 25.7556 20.8231 25.805 20.7335C25.8446 20.6539 26.4969 20.0171 27.248 19.3206C27.9892 18.6141 28.602 18.0072 28.602 17.9675C28.602 17.8878 27.9892 17.7784 26.1806 17.5196C25.5284 17.4202 24.9551 17.3207 24.9156 17.2808C24.8662 17.2411 25.3208 16.3654 25.9237 15.3406C26.9021 13.659 27.0898 13.3009 26.991 13.3009C26.9713 13.3009 26.1608 13.5895 25.1923 13.9476C23.779 14.465 23.3936 14.5646 23.2948 14.465C23.0773 14.2461 22.8698 12.6044 22.8698 11.1317V9.70895L22.0692 10.1368C21.1304 10.6443 19.8752 11.6293 19.2921 12.3159C19.0746 12.5845 18.8474 12.8034 18.8079 12.8034C18.7584 12.8034 18.3828 12.3457 17.9579 11.7785C17.2266 10.8034 15.9911 9.4204 15.8528 9.4204C15.8133 9.4204 15.7342 9.8582 15.6749 10.3855C15.497 11.878 14.9732 13.6989 14.7162 13.6989C14.647 13.6989 14.1727 13.4999 13.6686 13.261C12.8582 12.883 11.6228 12.5049 11.1682 12.5049C11.0497 12.5049 11.109 12.6839 11.3956 13.271C11.8304 14.1566 12.2257 15.5397 12.1763 16.0172L12.1467 16.3356L11.2572 16.4053C8.66783 16.6043 7.45221 16.7237 7.45221 16.7734C7.45221 16.8133 7.88707 17.2808 8.42075 17.8281C9.41894 18.843 10.1503 19.9275 10.1009 20.3057C10.0811 20.4449 9.57707 20.8628 8.53935 21.5893C7.69929 22.1762 6.99759 22.7036 6.97783 22.7533C6.95806 22.8031 7.06677 22.8727 7.2249 22.9125C8.28238 23.1413 8.73701 23.2907 9.11256 23.5095C9.62648 23.818 10.1602 24.2757 10.427 24.6538L10.6246 24.9324L9.51777 26.0368C8.58876 26.9721 8.43064 27.1612 8.54923 27.2707C8.6283 27.3402 9.22127 27.5692 9.87356 27.7681C10.5258 27.9672 11.0991 28.1761 11.1485 28.2258C11.1979 28.2756 11.1188 28.783 10.931 29.4795C10.7631 30.1263 10.6543 30.6934 10.6839 30.7431C10.7334 30.8327 12.364 30.7531 12.6309 30.6536C12.878 30.564 12.9768 30.8028 13.0461 31.589C13.0856 32.0467 13.1449 32.4347 13.1844 32.4546C13.2634 32.5043 14.3703 32.0267 14.3703 31.9471C14.3703 31.9173 14.2419 31.7084 14.0838 31.4794C13.4216 30.5043 12.9669 29.2806 12.6111 27.4796C12.374 26.3353 12.2652 25.2408 12.3839 25.2408C12.4234 25.2408 12.4926 25.5592 12.5321 25.9473C12.7298 28.1661 13.7478 30.982 14.6767 31.9173C14.9139 32.1561 15.4279 32.4944 15.922 32.7232L16.7522 33.1112L16.7225 33.4794L16.6928 33.8475L14.4988 34.5838L12.3048 35.3202L12.1072 35.9271C11.9984 36.2654 11.5438 37.8076 11.109 39.3698C10.2985 42.2055 10.0515 42.9219 10.1701 42.0762C10.2195 41.6582 10.1997 41.6185 9.69566 41.0613C6.54297 37.6385 4.59601 33.6286 3.83501 28.9721C3.54841 27.2707 3.57806 23.6289 3.88443 21.9573C4.74425 17.261 6.6418 13.4302 9.74508 10.1567C14.8052 4.83347 21.8914 2.38578 29.2049 3.45043ZM15.8331 35.6087C15.1215 37.0913 13.8564 40.6434 13.9651 40.8325C14.0145 40.922 14.4396 41.3299 14.9139 41.7478C15.3981 42.1658 15.8034 42.5538 15.8232 42.6235C15.8528 42.693 15.7045 42.912 15.497 43.1209C15.2796 43.3498 15.2005 43.3995 15.2993 43.2503C15.6848 42.6433 15.7144 42.7229 14.7162 41.7976C14.0442 41.1707 13.7774 40.8623 13.7774 40.6931C13.7774 40.1757 15.7342 35.1908 15.9417 35.1908C15.9911 35.1908 15.9417 35.3799 15.8331 35.6087Z" fill="#F9FAFB"/>
</g>
<defs>
<clipPath id="clip0_6_32">
<rect width="52" height="52" fill="white"/>
</clipPath>
</defs>
</svg>
